<svg width="40" height="40" viewBox="0 0 40 40" fill="none" xmlns="http://www.w3.org/2000/svg">
<g clip-path="url(#clip0_202_313)">
<path d="M36.3201 31.1726C35.7152 32.5701 34.9992 33.8565 34.1695 35.0392C33.0387 36.6515 32.1128 37.7675 31.3993 38.3872C30.2931 39.4045 29.108 39.9255 27.8389 39.9551C26.9278 39.9551 25.8291 39.6958 24.5501 39.1699C23.2669 38.6465 22.0877 38.3872 21.0095 38.3872C19.8786 38.3872 18.6658 38.6465 17.3686 39.1699C16.0694 39.6958 15.0228 39.9699 14.2225 39.9971C13.0055 40.0489 11.7925 39.5131 10.5817 38.3872C9.80885 37.7132 8.84221 36.5577 7.68422 34.9207C6.44179 33.1726 5.42034 31.1455 4.62012 28.8344C3.76311 26.3382 3.3335 23.921 3.3335 21.5808C3.3335 18.9002 3.91274 16.5881 5.07295 14.6507C5.98477 13.0944 7.19782 11.8668 8.71604 10.9656C10.2343 10.0644 11.8747 9.60514 13.6413 9.57576C14.608 9.57576 15.8756 9.87477 17.4508 10.4624C19.0216 11.052 20.0302 11.351 20.4725 11.351C20.8031 11.351 21.9235 11.0014 23.823 10.3044C25.6192 9.65798 27.1352 9.39034 28.3771 9.49576C31.7425 9.76736 34.2708 11.094 35.9522 13.484C32.9424 15.3077 31.4536 17.8619 31.4832 21.1386C31.5104 23.6909 32.4363 25.8148 34.256 27.5011C35.0806 28.2838 36.0016 28.8888 37.0262 29.3184C36.804 29.9628 36.5695 30.5801 36.3201 31.1726ZM28.6018 0.800716C28.6018 2.80117 27.871 4.66899 26.4142 6.39783C24.6563 8.45308 22.5299 9.6407 20.2241 9.4533C20.1947 9.2133 20.1776 8.96072 20.1776 8.69529C20.1776 6.77486 21.0137 4.71961 22.4983 3.03917C23.2395 2.18833 24.1822 1.48087 25.3254 0.916514C26.4661 0.36058 27.5451 0.0531367 28.5599 0.000488281C28.5895 0.267918 28.6018 0.535365 28.6018 0.80069V0.800716Z" fill="black"/>
</g>
<defs>
<clipPath id="clip0_202_313">
<rect width="40" height="40" fill="white"/>
</clipPath>
</defs>
</svg>
