<svg width="40" height="40" viewBox="0 0 40 40" fill="none" xmlns="http://www.w3.org/2000/svg">
<g clip-path="url(#clip0_202_312)">
<path d="M39.6099 20.4609C39.6099 19.1014 39.4997 17.7345 39.2645 16.397H20.3999V24.0986H31.2028C30.7545 26.5825 29.3141 28.7798 27.205 30.1761V35.1734H33.65C37.4347 31.69 39.6099 26.5458 39.6099 20.4609Z" fill="#4285F4"/>
<path d="M20.3998 40.0015C25.7939 40.0015 30.3429 38.2305 33.6572 35.1733L27.2123 30.1761C25.4191 31.396 23.1042 32.0868 20.4072 32.0868C15.1895 32.0868 10.7654 28.5667 9.17809 23.834H2.52734V28.9856C5.92253 35.7392 12.8378 40.0015 20.3998 40.0015Z" fill="#34A853"/>
<path d="M9.1708 23.834C8.33303 21.3501 8.33303 18.6604 9.1708 16.1765V11.0249H2.52741C-0.309265 16.6762 -0.309265 23.3343 2.52741 28.9856L9.1708 23.834Z" fill="#FBBC04"/>
<path d="M20.3998 7.9161C23.2512 7.87201 26.007 8.94494 28.0721 10.9144L33.7822 5.20436C30.1665 1.80917 25.3677 -0.0574433 20.3998 0.00134778C12.8378 0.00134778 5.92253 4.2637 2.52734 11.0247L9.17074 16.1763C10.7508 11.4362 15.1821 7.9161 20.3998 7.9161Z" fill="#EA4335"/>
</g>
<defs>
<clipPath id="clip0_202_312">
<rect width="40" height="40" fill="white"/>
</clipPath>
</defs>
</svg>
